<svg xmlns="http://www.w3.org/2000/svg" viewBox="0 0 155.41 28.39"><defs><style>.cls-1{fill:#000;fill-rule:evenodd;}</style></defs><title>akari-white-solo</title><g id="Capa_2" data-name="Capa 2"><g id="Capa_1-2" data-name="Capa 1"><path class="cls-1" d="M111.75,5.55l-.06,21.7h5.16c.07-.27.15-.45-.13-.61s-1.39-.46-1.39-1v-23c10-2.15,12.63,8.36,6.37,10a3.62,3.62,0,0,1-1.46.16c-.82-.52-.6-.5-1.6-.08a11.74,11.74,0,0,1-2.43.87c-.31,0-.38.49-.25.8a22.5,22.5,0,0,0,1.73,1.87l.77.79c2.59,2.81,11.21,10.58,13.79,11.25a6.76,6.76,0,0,0,3.94-.5c.45-.18.64-.39.53-.61-.2-.41-.73-.21-1-.3a17.37,17.37,0,0,1-3.57-2.17c-1.52-1-11.21-9.91-11.44-11,2.24-.58,7.67-1.51,8.19-5.7a6.29,6.29,0,0,0-1.57-4.91c-1.31-1.5-3.94-2.39-7-2.64-3.35-.27-6.7-.31-10-.44-.28,0-.39.4,0,.61a2.12,2.12,0,0,1,.91.89C111.81,2.58,111.75,4.13,111.75,5.55Z"/><path class="cls-1" d="M36.74,1.26c.7,0,1.39.06,1.39.94,0,1.47,0,3.72,0,4.42,0,4.73-.23,13.72,0,17.87a14.48,14.48,0,0,1,0,1.71.82.82,0,0,1-.09.42.51.51,0,0,1-.46.2v.7H44v-.69a3.34,3.34,0,0,1-1.19-.45c-1.41-.94-1.1-3.12-1-4.66.06-1.77.15-5.66.22-7.3,4,4.09,11,10.28,15.8,13,.83.71,2.95.88,4.85.68a6.45,6.45,0,0,0,2.53-.62c.69-.46-.29-.73-1.76-.61a4.15,4.15,0,0,1-1.7-.4C58,25,46.64,14.65,45.16,12.18,48.05,9.7,53.31,4.56,55.07,1l-5.55.13c0,.13-.1.41,0,.45.76.35,1.59.24-.24,2.85-1.6,2.29-5,6.7-7.26,7.84L41.88.46H36.74v.8Z"/><path class="cls-1" d="M9.43,13.15c.27-.74,2.22-4.82,3.3-7.12.28-.59.68-.41.86.21.69,2.41,1.42,4.51,2.08,6.9Zm2-9.68A52.42,52.42,0,0,1,9,8.79c-1.26,2.74-8.63,17.78-9,19l4.19,0v-.49h0C3.64,27.1,2.8,27,3.45,25.3c.31-.8.88-1.92,1.73-3.7,1-2.15,2-4.23,3-6.39,1.11,0,5.31-.21,7.17-.05,1,.1,1.14.49,1.43,1.58.56,2.13,1.95,6.93,2.77,9.41a2.06,2.06,0,0,0,2.23,1.54h4.13V27a3,3,0,0,1-1.54-.54,5.88,5.88,0,0,1-1-1.3c-1.28-2.14-2.61-7.85-3.48-10.57l-4-13.45,0-.72c-.75,0-3.28.09-4.94.12a6.08,6.08,0,0,0-1.24.1c-.33.1-.44.46,0,.68a7.26,7.26,0,0,0,.82.3A1.28,1.28,0,0,1,11.42,3.47Z"/><path class="cls-1" d="M153,14.91c-.17-4.82.22-10.08-.09-14.86l-5.43,0V.63a5.25,5.25,0,0,1,1.19.4c.32.24.38.57.45,1.18.09,1.07,0,2.66,0,3.77l.11,14.46c0,1.22,0,2.87.06,4.09a7.46,7.46,0,0,1-.11,2.11c-.31.56-.19.86.36.82a24.36,24.36,0,0,1,3.55-.1c.68,0,1.65.08,2.37.1v-.64a4.91,4.91,0,0,1-1.14-.25c-1.6-.63-1.28-1.79-1.27-4.22S153,17.39,153,14.91Z"/><path class="cls-1" d="M83,13.15c.27-.74,2.22-4.82,3.3-7.12.28-.59.67-.41.86.21.68,2.41,1.42,4.51,2.08,6.9Zm2-9.68a52.42,52.42,0,0,1-2.45,5.32c-1.26,2.74-8.63,17.78-9,19l4.19,0v-.49c-.55-.14-1.39-.28-.74-1.94.31-.8.88-1.92,1.74-3.7,1-2.15,2-4.23,3-6.39,1.11,0,5.31-.21,7.18-.05,1,.1,1.13.49,1.42,1.58.56,2.13,2,6.93,2.77,9.41a2.07,2.07,0,0,0,2.24,1.54h4.12V27A3,3,0,0,1,98,26.44a6.21,6.21,0,0,1-1-1.3C95.7,23,94.36,17.29,93.5,14.57l-4-13.45,0-.72c-.75,0-3.27.09-4.94.12a6,6,0,0,0-1.23.1c-.34.1-.45.46,0,.68a6.46,6.46,0,0,0,.81.3A1.28,1.28,0,0,1,85,3.47Z"/></g></g></svg>