<svg xmlns="http://www.w3.org/2000/svg" width="154.16" height="50" viewBox="0 0 154.16 50">
  <g id="Group_521" data-name="Group 521" transform="translate(-139 173)">
    <g id="Group_524" data-name="Group 524" transform="translate(-952.876 22.131)">
      <g id="Group_521-2" data-name="Group 521">
        <path id="Path_446" data-name="Path 446" d="M1111.107-150.626v4.4l2.747,1.1,3.3-3.3Z" fill="#f7a402"/>
        <path id="Path_447" data-name="Path 447" d="M1111.107-159.966l18.132-15.385v19.78L1121-148.977l-9.89-3.3Z" fill="#f7a402"/>
        <path id="Path_448" data-name="Path 448" d="M1111.107-182.494v20.879l18.132-15.934h-9.89v-11.538Z" fill="#f7a402"/>
        <path id="Path_449" data-name="Path 449" d="M1111.107-184.142v-10.989l5.495,6.593Z" fill="#f7a402"/>
        <path id="Path_450" data-name="Path 450" d="M1110.008-150.626v4.4l-2.747,1.1-3.3-3.3Z" fill="#ef7c01"/>
        <path id="Path_451" data-name="Path 451" d="M1110.008-159.966l-18.132-15.385v19.78l8.242,6.593,9.89-3.3Z" fill="#ef7c01"/>
        <path id="Path_452" data-name="Path 452" d="M1110.008-184.142v-10.989l-5.495,6.593Z" fill="#ef7c01"/>
        <path id="Path_453" data-name="Path 453" d="M1110.008-182.494v20.879l-18.132-15.934h9.89v-11.538Z" fill="#ef7c01"/>
      </g>
      <g id="Group_523" data-name="Group 523">
        <path id="Path_454" data-name="Path 454" d="M1159.5-152.282h-5.261v-10.43q0-4.986.092-9.785-1.375,4.893-2.887,9.6l-3.713,11.446-3.712-11.446q-1.512-4.708-2.888-9.6v20.215h-5.169v-32.307h5.815l3.831,11.953q.969,2.862,2.169,7.293.278-1.385,2.17-7.293l3.83-11.953h5.723Z"/>
        <path id="Path_455" data-name="Path 455" d="M1184.791-152.282h-5.953l-1.523-6.738h-7.247l-1.523,6.738h-5.907l8.261-32.307h5.631Zm-8.723-12.138-.876-3.831q-1.063-4.662-1.523-7.846-.417,3.047-1.477,7.754l-.877,3.923Z"/>
        <path id="Path_456" data-name="Path 456" d="M1206.807-174.3a10.014,10.014,0,0,1-3.185,7.846,10.636,10.636,0,0,1-7.338,2.585H1193.7v11.584h-5.769v-32.307h8.584a10.353,10.353,0,0,1,7.431,2.584Q1206.806-179.281,1206.807-174.3Zm-5.77.092q0-4.753-4.569-4.754H1193.7v9.462h2.861Q1201.038-169.5,1201.037-174.205Z"/>
        <path id="Path_457" data-name="Path 457" d="M1225.637-152.282H1209.76v-32.307h5.769v26.676h10.108Z"/>
        <g id="Group_522" data-name="Group 522">
          <path id="Path_458" data-name="Path 458" d="M1246.036-152.282h-16.984v-32.307h16.569v5.538h-10.8v6.831h7.246v5.446h-7.246v8.954h11.215Z"/>
        </g>
      </g>
    </g>
  </g>
</svg>
