<?xml version="1.0" encoding="utf-8"?>
<!-- Generator: Adobe Illustrator 21.1.0, SVG Export Plug-In . SVG Version: 6.00 Build 0)  -->
<svg version="1.1" id="Layer_1" xmlns="http://www.w3.org/2000/svg" xmlns:xlink="http://www.w3.org/1999/xlink" x="0px" y="0px"
	 viewBox="0 0 194.9 60.8" style="enable-background:new 0 0 194.9 60.8;" xml:space="preserve">
<style type="text/css">
	.st0{fill:#E2374E;}
	.st1{fill:#99999A;}
</style>
<g>
	<g>
		<rect x="76.4" width="8.6" height="40.9"/>
		<path d="M182.3,20.2v-7.9H174V0h-8.6v29.4l0,0l0,0v0h0c0,6.3,5.1,11.4,11.5,11.4c1,0,4.4-0.1,5.3-0.4v-8.1h-5.3
			c-1.6,0-2.8-1.3-2.8-3v-9.2H182.3z"/>
		<path d="M50.5,26.1c0,8.2,6.6,14.8,14.8,14.8h7.2v-7.6h-7.2c-4,0-7.2-3.2-7.2-7.2c0-4,3.2-7.2,7.2-7.2h7.2v-7.6h-7.2
			C57.2,11.2,50.5,17.9,50.5,26.1z"/>
		<path d="M0,22.6L0,22.6L0,22.6L0,22.6L0,22.6l0,18.3h8.6V22.7c0-1.6,1.2-3,2.8-3h5.3v-8.1c-0.9-0.2-4.3-0.4-5.3-0.4
			C5.1,11.2,0,16.3,0,22.6z"/>
		<path d="M161.5,23.3c0-6.6-5.4-12-12-12c-2.1,0-4.1,0.5-5.8,1.5V0H135v40.9h8.6V23.4c0.1-2.5,2.1-4.4,4.6-4.4c2.5,0,4.5,2,4.6,4.4
			v17.5h8.6C161.5,40.9,161.5,23.3,161.5,23.3z"/>
		<path d="M33.1,11.2L33.1,11.2c-8.2,0-14.8,6.6-14.8,14.8c0,8.2,6.6,14.8,14.8,14.8h0h12.9v-7.6h0h0H33.1h0c-2.9,0-5.4-1.7-6.5-4.1
			h21c0.2-1,0.3-2,0.3-3.1C48,17.9,41.3,11.2,33.1,11.2z M26.6,23c1.2-2.4,3.6-4.1,6.5-4.1c2.9,0,5.4,1.7,6.5,4.1H26.6z"/>
		<g>
			<path d="M131.1,11.2h-7.6v1.8c-2.1-1.2-4.6-1.8-7.2-1.8c-8.2,0-14.8,6.6-14.8,14.8c0,8.2,6.6,14.8,14.8,14.8
				c7.9,0,14.3-6.1,14.8-13.8V11.2z M116.3,33.3c-4,0-7.2-3.2-7.2-7.2c0-4,3.2-7.2,7.2-7.2c3.7,0,6.7,2.8,7.2,6.3
				c0,0,0.1,0.8,0.1,0.9C123.5,30.1,120.3,33.3,116.3,33.3z"/>
			<path d="M131.1,40.8h-7.6v4.4c-0.4,3.6-3.5,6.3-7.2,6.3v7.6c7.7,0,14-5.8,14.7-13.3l0.1-0.8l0,0h0V40.8z"/>
		</g>
		<g>
			<rect x="89" y="12.3" width="8.6" height="28.6"/>
			<rect x="89" width="8.6" height="8.6"/>
		</g>
		<circle class="st0" cx="190.1" cy="36.6" r="4.3"/>
	</g>
	<g>
		<path class="st1" d="M7.6,51l-0.5,1.1c-1-0.6-2.1-0.9-2.9-0.9c-1.4,0-2.3,0.5-2.3,1.4c0,2.7,6,1.3,5.9,5.1c0,1.8-1.6,2.9-3.8,2.9
			C2.5,60.7,1,60,0,59l0.5-1.1c1,1,2.3,1.5,3.5,1.5c1.5,0,2.5-0.6,2.5-1.6c0-2.8-5.9-1.3-5.9-5.1C0.6,51,2.1,50,4.3,50
			C5.5,50,6.8,50.4,7.6,51z"/>
		<path class="st1" d="M23.3,51.2v9.4h-1.2v-9.4h-3.5V50h8.1v1.2H23.3z"/>
		<path class="st1" d="M46.9,56.3c0,2.8-1.7,4.4-4.4,4.4c-2.8,0-4.5-1.7-4.5-4.4V50h1.2v6.2c0,2.1,1.2,3.3,3.3,3.3
			c2,0,3.2-1.2,3.2-3.3V50h1.2V56.3z"/>
		<path class="st1" d="M63.9,50c3.1,0,5.4,2.3,5.4,5.3c0,3-2.4,5.3-5.5,5.3h-4.2V50H63.9z M60.8,59.5h3.1c2.4,0,4.2-1.8,4.2-4.1
			c0-2.4-1.9-4.1-4.3-4.1h-3V59.5z"/>
		<path class="st1" d="M81.3,60.6V50h1.2v10.6H81.3z"/>
		<path class="st1" d="M106.3,55.3c0,3-2.5,5.4-5.5,5.4c-3.1,0-5.6-2.4-5.6-5.4c0-3,2.5-5.3,5.6-5.3C103.8,50,106.3,52.3,106.3,55.3
			z M96.4,55.3c0,2.3,2,4.2,4.3,4.2c2.4,0,4.3-1.9,4.3-4.2c0-2.3-1.9-4.2-4.3-4.2C98.4,51.1,96.4,53,96.4,55.3z"/>
	</g>
	<g>
		<path d="M190.1,0c0.6,0,1.2,0.1,1.7,0.3c0.5,0.2,1,0.5,1.4,0.9c0.4,0.4,0.7,0.9,0.9,1.4c0.2,0.5,0.3,1.1,0.3,1.7
			c0,0.6-0.1,1.2-0.3,1.7c-0.2,0.5-0.5,1-0.9,1.4c-0.4,0.4-0.9,0.7-1.4,0.9c-0.5,0.2-1.1,0.3-1.7,0.3s-1.2-0.1-1.7-0.3
			c-0.5-0.2-1-0.5-1.4-0.9c-0.4-0.4-0.7-0.9-0.9-1.4c-0.2-0.5-0.3-1.1-0.3-1.7c0-0.6,0.1-1.2,0.3-1.7c0.2-0.5,0.5-1,0.9-1.4
			c0.4-0.4,0.9-0.7,1.4-0.9C188.9,0.1,189.5,0,190.1,0z M190.1,8.2c0.5,0,1-0.1,1.5-0.3c0.5-0.2,0.9-0.5,1.2-0.8
			c0.3-0.3,0.6-0.7,0.8-1.2c0.2-0.5,0.3-0.9,0.3-1.5s-0.1-1-0.3-1.5c-0.2-0.5-0.5-0.9-0.8-1.2c-0.3-0.3-0.7-0.6-1.2-0.8
			c-0.5-0.2-0.9-0.3-1.5-0.3c-0.5,0-1,0.1-1.5,0.3c-0.5,0.2-0.9,0.5-1.2,0.8c-0.3,0.3-0.6,0.7-0.8,1.2c-0.2,0.5-0.3,1-0.3,1.5
			s0.1,1,0.3,1.5c0.2,0.5,0.5,0.9,0.8,1.2c0.3,0.3,0.7,0.6,1.2,0.8C189,8.1,189.5,8.2,190.1,8.2z M192.1,3.5c0,0.3-0.1,0.6-0.3,0.9
			c-0.2,0.2-0.4,0.4-0.7,0.5l1.2,2h-1l-1-1.9h-1.2v1.9h-0.8V2h2.1c0.5,0,0.9,0.1,1.2,0.4C191.9,2.6,192.1,3,192.1,3.5z M190.4,4.2
			c0.6,0,0.8-0.2,0.8-0.7c0-0.5-0.3-0.7-0.8-0.7h-1.3v1.4H190.4z"/>
	</g>
</g>
</svg>
