<svg width="107" height="28" viewBox="0 0 107 28" fill="none" xmlns="http://www.w3.org/2000/svg">
<path d="M18.8906 15.5659H20.4126C21.5709 15.5624 22.6809 15.1006 23.5 14.2816C24.3191 13.4625 24.7809 12.3525 24.7844 11.1941V7.58389C24.7815 6.42519 24.32 5.31475 23.5008 4.49531C22.6816 3.67587 21.5713 3.2141 20.4126 3.21094H6.09146C4.46816 3.23354 2.91899 3.89426 1.77904 5.05019C0.639089 6.20612 0 7.76434 0 9.38778C0 11.0112 0.639089 12.5695 1.77904 13.7254C2.91899 14.8814 4.46816 15.5421 6.09146 15.5647H4.57075C3.41194 15.5682 2.30162 16.0302 1.48244 16.8499C0.663257 17.6695 0.201825 18.78 0.198982 19.9389V23.549C0.202457 24.7076 0.664334 25.8178 1.48371 26.6369C2.30308 27.4561 3.41335 27.9176 4.57194 27.9208H18.8906C20.5291 27.9208 22.1003 27.27 23.2588 26.1115C24.4173 24.953 25.0681 23.3817 25.0681 21.7434C25.0681 20.1049 24.4173 18.5337 23.2588 17.3752C22.1003 16.2167 20.5291 15.5659 18.8906 15.5659Z" fill="#1642F0"/>
<path d="M86.5361 8.9706C85.6404 8.95984 84.74 8.9706 83.8479 8.9706C82.7702 8.9706 82.5224 9.22208 82.5224 10.2782C82.5224 13.0681 82.5379 15.8594 82.5104 18.6505C82.5093 19.3155 82.4203 19.9774 82.2458 20.6191C81.8279 22.0823 80.6304 23.0139 79.1253 23.148C77.6202 23.2821 76.4095 22.754 75.6528 21.3974C75.2253 20.6358 75.1403 19.7941 75.1427 18.9331C75.1499 16.0361 75.1499 13.1392 75.1427 10.2422C75.1427 9.26277 74.8493 8.97297 73.8614 8.96824C72.9834 8.96824 72.1024 8.96824 71.2188 8.96824C70.2932 8.96824 69.9938 9.27475 69.9926 10.2039C69.9926 13.1009 69.9926 15.9978 69.9926 18.8948C69.9926 19.7593 69.9615 20.6263 70.0202 21.4872C70.1854 23.9359 71.1217 25.9907 73.3861 27.1605C75.5857 28.2957 77.8644 28.2586 80.0916 27.1701C81.0972 26.7053 81.8836 25.8689 82.2853 24.8364C82.3198 24.7666 82.3598 24.6998 82.405 24.6364C82.4697 24.6699 82.4924 24.6747 82.4948 24.6831C82.6397 25.301 82.7822 25.92 82.9283 26.5379C83.0959 27.2408 83.4264 27.5102 84.1436 27.515C84.9339 27.5198 85.7239 27.5198 86.5133 27.515C87.3132 27.515 87.6422 27.1857 87.6439 26.3727C87.6439 20.9444 87.6439 15.5161 87.6439 10.0878C87.6474 9.29514 87.3288 8.98014 86.5361 8.9706Z" fill="#1642F0"/>
<path d="M106.316 9.93404C106.295 9.30063 105.974 9.00252 105.331 8.97618C104.709 8.95343 104.086 8.96656 103.463 8.96656H100.915C100.915 7.93319 100.871 6.97885 100.931 6.03169C100.969 5.43298 101.372 4.98515 101.938 4.78758C102.383 4.64083 102.845 4.55307 103.312 4.52655C103.946 4.48344 104.586 4.51935 105.227 4.51457C105.987 4.50738 106.319 4.19366 106.335 3.43689C106.351 2.66336 106.349 1.88863 106.335 1.11511C106.322 0.318822 106.017 0.00868827 105.223 0.00509601C103.932 -0.000891065 102.64 -0.0104692 101.35 0.03623C100.213 0.0769422 99.1266 0.363125 98.1642 0.994165C96.4877 2.09579 95.8585 3.74823 95.7535 5.65691C95.701 6.59448 95.7159 7.53685 95.7317 8.47682C95.7317 8.84563 95.638 8.98808 95.253 8.97373C94.5093 8.94617 93.7647 8.95938 93.0209 8.96778C92.1757 8.97854 91.8773 9.28269 91.8685 10.1352C91.8615 10.8489 91.8615 11.5618 91.8685 12.2738C91.8773 13.1479 92.173 13.4425 93.0559 13.4545C93.7533 13.4641 94.4542 13.4832 95.1507 13.4485C95.6022 13.4246 95.743 13.5467 95.7404 14.022C95.7185 18.0418 95.7282 22.0615 95.7282 26.0813C95.7282 26.2633 95.7282 26.4464 95.7404 26.6261C95.7955 27.1829 96.0922 27.4942 96.6539 27.505C97.7468 27.5257 98.8397 27.5257 99.9334 27.505C100.493 27.4942 100.792 27.1756 100.841 26.6237C100.857 26.4428 100.856 26.2644 100.856 26.0777C100.856 22.0579 100.865 18.0382 100.843 14.0184C100.843 13.5395 100.986 13.4377 101.433 13.4485C102.694 13.4773 103.955 13.4665 105.216 13.4485C105.958 13.4413 106.308 13.1468 106.331 12.475C106.352 11.6332 106.351 10.7818 106.316 9.93404Z" fill="#1642F0"/>
<path d="M44.844 17.242C44.0058 16.9079 43.1066 16.7127 42.224 16.5008C41.1033 16.2314 39.9609 16.0433 38.845 15.7547C38.0067 15.5405 37.6056 15.0183 37.5865 14.3334C37.5673 13.6485 38.0044 13.0642 38.7587 12.7636C38.857 12.7235 38.9578 12.6894 39.0605 12.6619C40.2698 12.3493 42.0408 12.5145 42.9808 13.979C43.2203 14.3514 43.5508 14.5777 44.0166 14.458C44.8811 14.2293 45.7492 14.0077 46.6006 13.7395C47.2843 13.5228 47.4699 13.0211 47.1442 12.3769C46.6753 11.4516 45.9902 10.6531 45.1469 10.049C42.3234 8.01347 37.7397 8.0482 34.8228 10.0395C31.743 12.1421 31.3575 17.1043 35.4215 19.1076C36.619 19.7003 37.9026 19.9925 39.2029 20.2391C40.1118 20.4115 41.0207 20.5852 41.9187 20.8043C42.4671 20.9372 42.8766 21.2833 42.9533 21.8819C43.0007 22.177 42.9595 22.4796 42.8348 22.7512C42.71 23.0228 42.5075 23.2511 42.2527 23.4075C42.0504 23.5407 41.8313 23.6471 41.6014 23.7235C39.5658 24.4181 37.6703 23.7966 36.4189 22.0376C36.2058 21.7383 35.9555 21.494 35.558 21.5503C34.6863 21.67 33.8134 21.7897 32.9489 21.9562C32.2244 22.0927 31.9909 22.5321 32.2232 23.2243C32.5304 24.134 33.0533 24.9557 33.7475 25.619C35.5676 27.3709 37.8271 27.9145 40.3489 27.9756C40.7176 27.9493 41.1739 27.9349 41.6254 27.8822C43.364 27.6774 44.9613 27.1362 46.3036 25.9531C48.7847 23.769 49.114 18.9483 44.844 17.242Z" fill="#1642F0"/>
<path d="M64.1658 22.992C63.4366 22.9812 62.7062 23.0075 61.9794 22.9692C60.4838 22.8878 59.8145 22.1682 59.8132 20.6809C59.8132 18.4513 59.8132 16.2217 59.8132 13.9922V13.4605H60.37C61.6297 13.4605 62.8906 13.4677 64.1515 13.4605C64.9896 13.4546 65.271 13.1635 65.2818 12.3277C65.2914 11.601 65.289 10.8729 65.2818 10.1449C65.2746 9.25754 64.992 8.97623 64.0988 8.97255C62.8235 8.97255 61.5483 8.96179 60.267 8.97255C59.9174 8.97255 59.788 8.88636 59.7977 8.51638C59.8181 7.10582 59.8109 5.69526 59.7977 4.28471C59.7977 3.51596 59.484 3.21541 58.7116 3.20703C57.786 3.20703 56.8592 3.20703 55.9336 3.20703C54.9482 3.20703 54.6691 3.48722 54.6668 4.48467C54.6668 5.8198 54.6523 7.15491 54.6739 8.48883C54.6739 8.87438 54.5541 8.98095 54.1782 8.96783C53.3137 8.94508 52.4467 8.9498 51.5822 8.96783C50.9368 8.97981 50.5907 9.25159 50.568 9.83591C50.5309 10.7591 50.5368 11.6859 50.5739 12.6091C50.5943 13.1132 50.8841 13.3815 51.3906 13.4222C51.8971 13.4629 52.3917 13.4485 52.8922 13.4521C53.4645 13.4521 54.0381 13.4521 54.6655 13.4521C54.6655 14.282 54.6655 15.0519 54.6655 15.8218C54.6739 17.8694 54.626 19.9194 54.7074 21.9634C54.8271 25.0766 56.8173 27.1554 59.9246 27.4188C61.3423 27.5385 62.7756 27.493 64.2018 27.5062C64.9357 27.5134 65.2531 27.1948 65.2662 26.45C65.2807 25.661 65.2782 24.8731 65.2662 24.084C65.2542 23.2949 64.9753 23.004 64.1658 22.992Z" fill="#1642F0"/>
</svg>
